<svg xmlns="http://www.w3.org/2000/svg" width="490.869" height="490.868"><path d="M161.251 379.462c-22.282-42.67-40.781-87.188-64.028-129.366-.061-.106-.132-.178-.193-.279 25.141-43.216 41.939-90.279 62.911-135.549 3.199-6.906-3.783-13.14-9.207-11.769-.066-.005-.117-.025-.178-.03-18.275-1.295-36.602-1.404-54.888-2.615-3.499-.233-5.748 1.519-6.814 3.905a7.97 7.97 0 0 0-2.564 2.59C58 151.67 31.666 198.215 1.355 242.251c-1.213 1.77-1.528 3.504-1.274 5.073-.254 1.568.061 3.301 1.274 5.067C31.666 296.427 58 342.972 86.294 388.288c.721 1.162 1.61 2 2.564 2.589 1.066 2.392 3.316 4.144 6.814 3.905 18.281-1.209 36.607-1.315 54.888-2.615 1.213-.086 2.28-.396 3.204-.873 5.243.056 10.722-5.642 7.487-11.832zm-62.306-.528C71.59 335.04 45.992 290.06 16.809 247.323c29.178-42.734 54.776-87.717 82.136-131.611 14.117.838 28.264 1.15 42.386 1.899-19.342 43.262-35.84 87.752-60.26 128.563-2.321 3.87-.909 7.566 1.813 9.729.167.696.406 1.392.797 2.103 21.368 38.771 38.76 79.496 58.727 118.962-14.483.798-28.986 1.102-43.463 1.966zM489.507 242.25c-30.311-44.036-56.635-90.581-84.939-135.896-.721-1.161-1.604-1.996-2.569-2.59-1.066-2.392-3.316-4.139-6.814-3.905-18.281 1.211-36.607 1.315-54.883 2.615-.066.005-.117.025-.178.03-5.424-1.371-12.411 4.862-9.212 11.769 20.978 45.27 37.775 92.328 62.916 135.549-.065.102-.137.173-.192.279-23.237 42.168-41.736 86.691-64.019 129.361-3.234 6.19 2.25 11.893 7.485 11.842.924.478 1.985.787 3.204.873 18.271 1.295 36.597 1.407 54.883 2.615 3.499.239 5.748-1.518 6.814-3.904.965-.595 1.844-1.427 2.569-2.585 28.3-45.326 54.629-91.86 84.939-135.901 1.219-1.768 1.528-3.499 1.274-5.068.251-1.58-.059-3.314-1.278-5.084zm-97.578 136.684c-14.482-.863-28.985-1.168-43.468-1.965 19.967-39.471 37.363-80.196 58.727-118.962.391-.711.63-1.406.797-2.103 2.723-2.163 4.134-5.859 1.813-9.729-24.415-40.812-40.919-85.302-60.261-128.563 14.122-.749 28.27-1.062 42.392-1.899 27.35 43.899 52.947 88.877 82.131 131.611-29.184 42.73-54.781 87.716-82.131 131.61zM314.225 33.213c-.314-.043-.609-.114-.949-.125l-45.523-1.528c-5.561-.188-8.349 4.205-8.283 8.569-14.553 55.538-26.618 111.728-38.612 167.865-12.045 56.437-24.171 112.863-38.055 168.883a1668.01 1668.01 0 0 1-12.304 46.794c-1.813 6.489-2.874 13.614-6.165 19.57-3.159 5.738-7.688 15.569 3.407 15.879 18.9.538 37.765-.137 56.66-.858.391-.015.747-.091 1.112-.147 3.555.503 7.257-1.086 8.45-5.61 35.546-134.749 63.784-271.672 89.707-408.574 1.224-6.506-4.499-10.907-9.445-10.718zm-94.627 408.683c-12.406.457-24.801.843-37.211.843 36.825-129.92 58.417-263.687 92.068-394.386l31.397 1.056c-25.014 131.509-52.303 262.983-86.254 392.487z"/></svg>