<svg xmlns="http://www.w3.org/2000/svg" width="477.188" height="477.187"><path d="M477.02 36.096a14.1 14.1 0 0 0-.441-3.271c.086-6.568-4.093-13.197-12.558-13.197h-32.932c-.635 0-1.203.104-1.787.178-3.595-.693-7.5.186-10.872 3.628-7.586 7.749-14.035 16.517-19.854 25.657H381.55c-4.713-6.282-8.79-13.041-12.832-19.763-1.193-5.228-5.216-9.704-12.157-9.704h-214.93c-.713 0-1.346.109-1.996.198-3.969-.569-8.14.412-10.661 3.608-6.391 8.112-11.7 16.433-15.803 25.656H90.822c-3.405-7.19-6.729-14.424-10.768-21.294-.35-.587-.749-1.059-1.14-1.564-1.544-4.623-5.482-8.34-11.829-8.34-14.731 0-38.057-4.862-51.755-.5C-9.443 25.275 3.054 61.506 3.869 79.8c1.244 27.83.229 55.937.381 83.797.343 63.375.987 126.756 1.815 190.125.373 28.752.706 57.493 1.231 86.229.073 4.094 1.696 7.171 4.083 9.263.883 5.637 5.007 10.669 12.385 10.669 12.74-.005 25.479-.066 38.13-1.731.988-.127 1.94-.341 2.869-.604 5.403.229 10.958-2.407 13.131-8.938 2.567-7.713 4.867-15.447 6.203-23.389h25.215c2.208 5.199 3.587 10.639 3.712 16.468.045 2.128.515 3.981 1.279 5.565 1.564 4.712 5.474 8.688 11.72 9.166 62.885 4.844 157.087 5.194 220.125 5.199 1.233 0 2.351-.178 3.401-.441 5.332.193 10.694-2.493 12.604-9.104 2.433-8.435 5.109-16.783 7.846-25.121h18.524c3.407 6.489 6.81 12.989 9.222 19.921.32.919.736 1.787 1.204 2.61 1.726 4.392 5.483 8.063 11.329 8.663 15.568 1.604 31.168 1.731 46.798 1.731 1.27 0 2.407-.188 3.483-.462 6.617.162 13.233-3.997 12.984-12.538-3.028-104.029 4.878-306.744 3.477-410.782zm-29.691 397.705c-9.095-.082-18.185-.249-27.254-.854-3.661-8.739-8.15-17.077-12.431-25.553-2.387-4.728-7.892-6.896-12.949-6.266-.573-.071-1.122-.178-1.741-.178h-32.931c-7.521 0-11.64 5.235-12.416 11.004-.036.097-.087.173-.122.273-2.59 7.77-5.088 15.56-7.495 23.385-56.985-.03-145.136-.498-201.997-4.372-1.544-8.983-4.768-17.56-9.404-25.578-2.917-5.037-7.526-6.692-11.957-6.17a14.67 14.67 0 0 0-2.739-.269H72.295c-7.597 0-11.71 5.342-12.429 11.177-.312 1.097-.541 2.254-.571 3.554-.149 6.48-1.711 12.721-3.607 18.875-7.478.701-14.988.945-22.501 1.021-1.711-94.445-3.303-287.686-3.359-382.151 0-2.61-.666-4.788-1.731-6.583V43.9h31.141c4.458 8.059 8.15 16.509 12.235 24.763 2.148 4.342 6.964 6.452 11.649 6.307.441.041.848.129 1.31.129h36.399c4.634 0 7.939-2.019 10.014-4.893 1.894-1.647 3.377-3.844 4.255-6.38 2.239-6.469 5.538-12.568 9.478-18.189h203.64c5.099 8.257 10.44 16.27 16.478 23.925 1.371 1.736 3.25 2.765 5.297 3.318 1.925 1.366 4.361 2.219 7.363 2.219h29.467c6.917 0 10.928-4.436 12.142-9.636 4.316-7.015 8.968-13.685 14.401-19.827h17.691c.801 96.481-5.724 291.673-3.728 388.165z"/><path d="M117.362 104.562H72.295c-9.567 0-13.65 8.46-12.304 15.729-.409 1.274-.696 2.644-.696 4.207v23.529c-3.488 7.695.234 18.933 11.268 18.933 15.049-.005 30.097-.01 45.067-1.731a18.79 18.79 0 0 0 2.646-.5c6.177-.378 12.085-4.512 12.085-12.5v-29.467c0-1.369-.224-2.585-.546-3.728.686-6.953-3.437-14.472-12.453-14.472zm-13 35.63c-6.35.406-12.703.602-19.068.681v-10.311h19.068v9.63zM117.362 208.56H72.295c-9.567 0-13.65 8.46-12.304 15.729-.409 1.274-.696 2.643-.696 4.207v23.529c-3.488 7.692.234 18.931 11.268 18.931 15.049-.006 30.097-.011 45.067-1.732.904-.102 1.79-.273 2.646-.497 6.177-.381 12.085-4.515 12.085-12.502V226.76c0-1.369-.224-2.585-.546-3.728.686-6.954-3.437-14.472-12.453-14.472zm-13 35.629c-6.35.406-12.703.6-19.068.681v-10.311h19.068v9.63zM117.362 312.554H72.295c-9.567 0-13.65 8.46-12.304 15.731-.409 1.274-.696 2.641-.696 4.204v23.532c-3.488 7.692.234 18.93 11.268 18.93 15.049-.005 30.097-.01 45.067-1.731.904-.102 1.79-.274 2.646-.497 6.177-.381 12.085-4.515 12.085-12.502v-29.468c0-1.366-.224-2.585-.546-3.728.686-6.95-3.437-14.471-12.453-14.471zm-13 35.632c-6.35.406-12.703.6-19.068.681v-10.313h19.068v9.632zM398.153 104.562h-45.066c-9.567 0-13.65 8.46-12.305 15.729-.411 1.274-.695 2.644-.695 4.207v23.529c-3.488 7.695.233 18.933 11.268 18.933 15.047-.005 30.098-.01 45.067-1.731a18.873 18.873 0 0 0 2.646-.5c6.175-.378 12.086-4.512 12.086-12.5v-29.467c0-1.369-.224-2.585-.549-3.728.685-6.953-3.438-14.472-12.452-14.472zm-12.999 35.63c-6.353.406-12.705.602-19.068.681v-10.311h19.068v9.63zM398.153 208.56h-45.066c-9.567 0-13.65 8.46-12.305 15.729-.411 1.274-.695 2.643-.695 4.207v23.529c-3.488 7.692.233 18.931 11.268 18.931 15.047-.006 30.098-.011 45.067-1.732a18.868 18.868 0 0 0 2.646-.497c6.175-.381 12.086-4.515 12.086-12.502V226.76c0-1.369-.224-2.585-.549-3.728.685-6.954-3.438-14.472-12.452-14.472zm-12.999 35.629c-6.353.406-12.705.6-19.068.681v-10.311h19.068v9.63zM398.153 312.554h-45.066c-9.567 0-13.65 8.46-12.305 15.731-.411 1.274-.695 2.641-.695 4.204v23.532c-3.488 7.692.233 18.93 11.268 18.93 15.047-.005 30.098-.01 45.067-1.731a19.014 19.014 0 0 0 2.646-.497c6.175-.381 12.086-4.515 12.086-12.502v-29.468c0-1.366-.224-2.585-.549-3.728.685-6.95-3.438-14.471-12.452-14.471zm-12.999 35.632c-6.353.406-12.705.6-19.068.681v-10.313h19.068v9.632zM282.985 217.291c-28.152-25.423-66.311-44.843-101.499-58.531-29.317-11.387-12.2 149.29-11.258 159.863.025.314.119.578.167.873-1.3 9.212 8.595 19.738 19.396 13.817 28.586-15.676 56.749-32.134 83.799-50.349 22.145-14.909 33.327-28.056 26.091-44.75-2.752-6.359-8.185-13.237-16.696-20.923zm-88.136 83.431c-2.387-32.123-3.712-64.264-3.821-96.499-.005-1.254-.193-2.382-.467-3.448.274-1.076.467-2.214.467-3.483v-6.51c31.9 14.449 61.012 33.893 86.838 57.647-26.689 19.012-54.512 36.176-83.017 52.293z"/></svg>