<svg xmlns="http://www.w3.org/2000/svg" width="481.072" height="481.072"><path d="M246.07 332.46c34.257.564 63.982-14.721 74.951-49.398.757-2.396.863-4.585.528-6.576.122-58.47 8.379-118.065 3.555-176.325C320.818 48.376 296.834 5.259 241.378.15c-.485-.045-.907.018-1.369.013-.025 0-.041-.013-.066-.013-44.62-2.364-78.16 23.308-85.366 67.76a15.968 15.968 0 0 0-.172 3.499 15.668 15.668 0 0 0-.338 3.169c-.654 78.356-35.53 268.952 92.003 257.882zm-71.01-146.289c.165.005.305.045.477.045 10.91 0 21.632-.287 32.431-1.944 7.724-1.186 11.882-10.758 10.001-17.605-2.247-8.171-9.902-11.182-17.608-9.996-7.711 1.181-16.057.942-23.996.927.389-5.449.841-10.821 1.32-16.077 9.76-.927 19.535-1.099 29.343-1.104 18.458-.005 18.458-28.629 0-28.624-8.887 0-17.752.134-26.599.848.571-6.286 1.102-12.573 1.498-18.87 8.326-1.115 16.691-1.93 25.095-2.013 18.448-.183 18.464-28.808 0-28.625-7.472.071-14.904.765-22.308 1.663 7.597-25.255 26.129-37.559 55.229-36.013.409.02.764-.048 1.152-.054.099.01.178.043.277.054 23.248 2.14 36.881 14.647 44.935 31.491h-17.742c-18.459 0-18.459 28.624 0 28.624h26.263c1.026 6.135 1.655 12.396 2.093 18.606h-26.924c-18.458 0-18.458 28.625 0 28.625h27.726a799.794 799.794 0 0 1-.224 17.174h-27.502c-18.458 0-18.458 28.625 0 28.625h26.481c-1.406 31.6-3.523 63.208-3.569 94.879-5.667 16.225-33.149 27.487-52.775 29.178-4.205.361-8.049.285-11.24-.284-19.995-3.524-34.954-17.758-42.084-36.287-9.701-25.265-12.215-54.519-11.75-83.243z"/><path d="M353.531 271.159c-15.133 107.693-203.348 98.472-225.739 0-4.09-17.996-31.691-10.364-27.606 7.611 13.241 58.225 71.198 91.805 131.167 97.192v75.789c-11.923.371-23.846.65-35.779.696-18.454.065-18.463 28.69 0 28.624 29.607-.111 59.171-1.457 88.74-2.858 18.378-.879 18.459-29.509 0-28.63-8.109.386-16.224.762-24.328 1.117v-74.397c58.479-3.631 112.355-34.947 121.15-97.538 2.528-18.046-25.047-25.826-27.605-7.606z"/></svg>