<svg xmlns="http://www.w3.org/2000/svg" width="467.092" height="467.092"><path d="M398.33 18.319c.011-1.331-.203-2.506-.503-3.613.584-6.515-3.244-13.396-11.593-13.177C280.907 4.291 175.605.168 70.272 0c-8.767-.015-12.601 7.686-11.52 14.439-.353 1.176-.591 2.44-.577 3.875 1.592 125.685 5.909 306.276 6.048 431.981 0 2.823.799 5.113 2.074 6.927.774 5.326 4.608 10.034 11.527 9.866 62.972-1.569 148.536-4.312 212.938-5.946.808.081 1.671.051 2.569-.071l3.707-.092c2.488-.061 4.52-.802 6.2-1.898 52.999-4.642 103.443-31.829 105.668-92.744.091-2.605-.508-4.758-1.549-6.49.23-95.619-9.977-245.876-9.027-341.528zm-65.41 324.343c-7.414.041-14.574 5.83-11.263 14.716 6.662 17.885 9.709 40.096-.533 57.198-12.391 20.683-34.495 20.119-55.513 22.77-12.853 1.62-26.517.762-39.476 1.133-10.083.284-137.763 3.397-137.763 3.895-.297-121.008-4.301-296.901-5.918-417.882 97.248.422 194.466 3.761 291.709 1.681-.33 88.93 8.363 232.536 8.958 321.436-15.087-4.753-30.676-6.77-46.778-5.692-1.255.085-2.372.374-3.423.745zm9.501 82.69c9.765-16.635 12.207-37.063 7.13-59.193 11.76.457 23.354 2.727 34.342 7.383.046.143.076.29.127.422-3.564 26.226-20.159 42.319-41.599 51.388z"/><path d="M143.121 159.906c-18.568 0-18.568 29.072 0 29.072 18.57 0 18.57-29.072 0-29.072zM318.773 159.906H197.829c-18.568 0-18.568 29.072 0 29.072h120.939c18.575.004 18.575-29.072.005-29.072zM143.121 95.943c-18.568 0-18.568 29.072 0 29.072 18.57 0 18.57-29.072 0-29.072zM318.773 95.943H197.829c-18.568 0-18.568 29.072 0 29.072h120.939c18.575.005 18.575-29.072.005-29.072zM140.242 247.125c18.567 0 18.567-29.068 0-29.068-18.571 0-18.571 29.068 0 29.068zM318.773 218.057h-128.14c-18.57 0-18.57 29.068 0 29.068h128.14c18.57 0 18.57-29.068 0-29.068zM143.121 286.383c-18.568 0-18.568 29.071 0 29.071 18.57 0 18.57-29.071 0-29.071zM317.331 286.383c-33.128-.005-95.031-.106-128.14-1.457-18.573-.752-18.499 28.325 0 29.071 33.104 1.346 95.012 1.452 128.14 1.457 18.57 0 18.57-29.071 0-29.071z"/></svg>