<svg xmlns="http://www.w3.org/2000/svg" width="471.851" height="471.851"><path d="M263.682 355.864c-5.713 0-11.024 2.163-14.584 5.931-3.438 3.646-5.088 8.511-4.763 14.062 1.092 18.824 1.376 37.409 1.447 54.908-24.7.37-48.759.559-71.595.559-42.14 0-81.266-.614-119.437-1.869-.317-75.316-2.133-151.74-3.89-225.688-1.245-52.736-2.54-107.217-3.284-160.899 29.216-1.643 60.624-2.382 100.935-2.382 18.641 0 37.282.15 55.924.302 9.953.083 19.911.16 29.861.218.546 11.664 1.473 23.242 2.524 35.884.036.421.099.817.19 1.3a19.62 19.62 0 0 0-.206 2.798V93.01c0 11.153 9.069 20.228 20.231 20.228 11.15 0 20.225-9.074 20.225-20.228V80.988c0-.317-.02-.625-.061-.932.143-1.341.157-2.656.041-4.009-1.407-16.994-2.864-34.559-2.986-52.207-.03-4.522-1.401-8.65-3.976-11.989-3.185-7.02-9.76-11.191-17.743-11.212-16.559-.03-33.115-.17-49.677-.317C183.973.162 165.08 0 146.2 0 113.623 0 70.609.416 26.708 3.661c-6.792.5-12.438 3.885-15.932 9.546-2.61 3.379-3.961 7.597-3.91 12.23.686 59.674 2.143 120.32 3.552 178.963 1.901 79.254 3.874 161.193 3.966 241.791.01 8.206 4.296 14.828 11.534 17.936 3.474 3.28 7.945 5.098 13.01 5.291 42.924 1.635 87.039 2.433 134.874 2.433h.01c29.488 0 59.694-.3 92.354-.919 8.709-.168 15.757-5.312 18.469-13.457 1.102-2.519 1.66-5.307 1.66-8.277 0-26.242-.111-49.916-1.513-73.95-.748-12.722-11.182-19.384-21.1-19.384z"/><path d="M453.126 215.461c-41.36-45.956-82.721-91.912-124.086-137.867-12.015-13.35-29.757-1.457-30.554 12.659-.203.863-.441 1.706-.533 2.644-1.711 16.562-2.204 33.159-2.356 49.776H177.76c-8.805 0-14.312 5.119-16.511 11.52-2.496 2.854-4.124 6.66-4.124 11.547V303.059c0 4.89 1.627 8.693 4.124 11.547 2.199 6.403 7.706 11.522 16.511 11.522h117.837c.152 16.615.646 33.21 2.356 49.774.092.944.33 1.777.533 2.641.797 14.116 18.539 26.02 30.554 12.664 41.36-45.956 82.726-91.911 124.086-137.867 6.997-3.148 12.299-10.847 11.831-18.946.473-8.092-4.834-15.788-11.831-18.933zM332.148 333.399c-.138-8.49-.193-16.98-.193-25.481-.005-11.791-9.191-17.656-18.336-17.605-1.468-.36-3.017-.604-4.738-.604H193.545V179.105h115.336c1.722 0 3.271-.247 4.738-.604 9.145.053 18.331-5.814 18.336-17.608 0-8.495.056-16.985.193-25.479 29.695 32.999 59.392 65.996 89.093 98.995-29.701 32.997-59.397 65.993-89.093 98.99z"/></svg>