<svg xmlns="http://www.w3.org/2000/svg" width="446.296" height="446.297"><path d="M381.902 113.195c-.944-28.551-1.467-67.126-1.188-95.697.01-1.274-.193-2.396-.482-3.453.553-6.226-3.098-12.796-11.07-12.588C268.521 4.098 167.903.157 67.266 0 58.895-.016 55.228 7.343 56.26 13.802c-.333 1.122-.566 2.328-.551 3.702 1.519 120.089 5.647 292.639 5.776 412.749 0 2.696.764 4.88 1.985 6.616.739 5.088 4.4 9.587 11.019 9.425 43.498-1.082 87.014-1.777 130.479-3.91 38.743-1.899 87.018.645 124.047-11.994 13.106-4.479 24.836-11.101 34.891-20.683 18.377-17.519 24.648-41.035 26.238-65.815 1.518-23.806-1.285-48.774-1.844-70.706-1.431-56.654-4.54-103.348-6.398-159.991zm-63.678 214.202c-7.084.04-13.929 5.57-10.766 14.065 6.368 17.088 9.278 38.304-.508 54.649-11.836 19.764-32.955 19.226-53.039 21.759-12.278 1.549-25.334.727-37.717 1.077-9.635.269-131.628 3.244-131.628 3.722-.287-115.605-4.108-283.668-5.652-399.266 92.917.401 185.808 3.593 278.725 1.607-.355 94.913 8.06 232.117 8.557 307.128-14.411-4.55-29.31-6.469-44.691-5.438-1.214.077-2.286.352-3.281.697zm9.074 79.019c9.334-15.899 11.659-35.409 6.81-56.559 11.237.437 22.318 2.604 32.804 7.053.051.127.082.264.127.396-3.408 25.06-19.256 40.436-39.741 49.11z"/><path d="M214.125 138.648c-23.97.858-47.936 1.668-71.929 1.732-15.089.041-15.089 23.44 0 23.399 10.135-.025 20.258-.238 30.389-.482 4.293 17.194 7.16 34.713 6.794 52.481-.134 6.495-.7 15.219-5.096 20.459-5.037 5.997-16.841-.716-21.848-3.26-13.421-6.825-25.263 13.36-11.809 20.2 24.298 12.359 50.396 11.745 59.476-17.718 6.941-22.525 1.965-49.83-3.585-72.846 5.873-.19 11.743-.358 17.613-.571 15.041-.53 15.092-23.934-.005-23.394zM265.052 167.228c-2.259-4.687-1.219-8.186-2.803-7.084 6.82-4.763 20.724-1.589 28.143-.695 14.959 1.8 14.792-21.622 0-23.399-15.63-1.876-39.472-4.014-48.338 12.708-7.124 13.431 1.696 29.364 8.587 40.908 8.491 14.226 19.108 27.226 26.304 42.216.59 1.224 1.412 4.265 1.696 5.361-7.276 3.819-22.855-.619-30.203-1.979-14.747-2.732-21.049 19.824-6.221 22.562 15.868 2.939 42.081 9.079 54.649-5.307 10.755-12.314 2.66-29.033-4.276-41.002-8.723-15.04-19.956-28.576-27.538-44.289z"/></svg>