<svg xmlns="http://www.w3.org/2000/svg" viewBox="0 0 600 200">
  <g transform="translate(65 20)">
    <rect width="515" height="125" fill="rgba(100, 100, 100, 0.075)" class="overlay"/>
    <g fill="none" class="xAxis" font-size="12" text-anchor="middle">
      <path stroke="#000" d="M.5 125v.5h515v-.5" class="domain"/>
      <g class="tick">
        <line x1=".5" x2=".5" y2="125" stroke="#000" opacity=".2"/>
        <text x=".5" y="135" fill="#000" dy=".71em">
          0s
        </text>
      </g>
      <g class="tick" transform="translate(128.75)">
        <line x1=".5" x2=".5" y2="125" stroke="#000" opacity=".2"/>
        <text x=".5" y="135" fill="#000" dy=".71em">
          1s
        </text>
      </g>
      <g class="tick" transform="translate(257.5)">
        <line x1=".5" x2=".5" y2="125" stroke="#000" opacity=".2"/>
        <text x=".5" y="135" fill="#000" dy=".71em">
          2s
        </text>
      </g>
      <g class="tick" transform="translate(386.25)">
        <line x1=".5" x2=".5" y2="125" stroke="#000" opacity=".2"/>
        <text x=".5" y="135" fill="#000" dy=".71em">
          3s
        </text>
      </g>
      <g class="tick" transform="translate(515)">
        <line x1=".5" x2=".5" y2="125" stroke="#000" opacity=".2"/>
        <text x=".5" y="135" fill="#000" dy=".71em">
          4s
        </text>
      </g>
    </g>
    <g fill="none" class="yAxis" font-size="12" text-anchor="end">
      <path stroke="#000" d="M0 125.5h-.5V.5H0" class="domain"/>
      <g class="tick" transform="translate(515 125)">
        <line x2="-515" y1=".5" y2=".5" stroke="#000" opacity=".2"/>
        <text x="-525" y=".5" fill="#000" dy=".32em">
          500
        </text>
      </g>
      <g class="tick" transform="translate(515 93.656)">
        <line x2="-515" y1=".5" y2=".5" stroke="#000" opacity=".2"/>
        <text x="-525" y=".5" fill="#000" dy=".32em">
          525
        </text>
      </g>
      <g class="tick" transform="translate(515 62.312)">
        <line x2="-515" y1=".5" y2=".5" stroke="#000" opacity=".2"/>
        <text x="-525" y=".5" fill="#000" dy=".32em">
          550
        </text>
      </g>
      <g class="tick" transform="translate(515 30.968)">
        <line x2="-515" y1=".5" y2=".5" stroke="#000" opacity=".2"/>
        <text x="-525" y=".5" fill="#000" dy=".32em">
          575
        </text>
      </g>
      <g class="tick" transform="translate(515 -.376)">
        <line x2="-515" y1=".5" y2=".5" stroke="#000" opacity=".2"/>
        <text x="-525" y=".5" fill="#000" dy=".32em">
          600
        </text>
      </g>
    </g>
    <path fill="none" stroke="#4682b4" stroke-width="2" d="M0 125h11.33l.515-.002h3.605l.515-.002h2.06l.515-.002h1.545l.515-.002h1.03l.515-.002h1.03l.515-.002h.515l.515-.002h.515l.515-.002h.515l.515-.002h.515l.515-.002h.515l.515-.002h.515l.515-.002.515-.002h.515l.515-.002.515-.002h.515l.515-.003h.515l.515-.003.515-.002h.515l.515-.003.515-.01h2.06l.515-.01h2.06l.515-.01.515-.01h1.545l.515-.01.515-.01h.515l.515-.01.515-.01.515-.01h.515l.515-.01.515-.008h1.03l.515-.004h.515l.515-.006h1.03l.515-.006.515-.004.515-.004h.515l.515-.01h.515l.515-.004.515-.006h.515l.515-.007.515-.004.515-.01h.515l.515-.003h.515l.515-.003.515-.01.515-.005.515-.01.515-.01h.515l.515-.008.515-.007.515-.01.515-.01.515-.01.515-.01.515-.003.515-.01.515-.006.515-.003.515-.01.515-.01.515-.008.515-.007.515-.01.515-.01.515-.01.515-.01.515-.01.515-.01.515-.01.515-.01.515-.01.515-.006.515-.01.515-.01.515-.01.515-.01.515-.003.515-.01.515-.002.515-.01.515-.01.515-.01.515-.01.515-.01.515-.01.515-.003.515-.01.515-.01.515-.01.515-.01.515-.01.515-.01.515-.01.515-.01.515-.01.515-.01.515-.01.515-.01.515-.01.515-.01.515-.01.515-.01.515-.014.515-.01.515-.018.515-.01.515-.01.515-.01.515-.014.515-.01.515-.01.515-.015.515-.01.515-.01.515-.01.515-.014.515-.015.515-.016.515-.015.515-.014.515-.017.515-.018.515-.01.515-.01.515-.01.515-.02.515-.02.515-.016.515-.013.515-.018.515-.02.515-.015.515-.013.515-.015.515-.02.515-.014.515-.013.515-.02.515-.02.515-.01.515-.02.515-.014.515-.017.515-.02.515-.02.515-.02.515-.02.515-.017.515-.02.515-.012.515-.02.515-.02.515-.02.515-.02.515-.02.515-.02.515-.02.515-.02.515-.02.515-.02.515-.02.515-.02.515-.02.515-.02.515-.02.515-.02.515-.02.515-.02.515-.02.515-.02.515-.02.515-.02.515-.03.515-.02.515-.02.515-.024.515-.02.515-.03.515-.026.515-.026.515-.026.515-.028.515-.02.515-.025.515-.025.515-.03.515-.02.515-.025.515-.023.515-.02.515-.03.515-.028.515-.028.515-.028.515-.03.515-.03.515-.028.515-.03.515-.03.515-.03.515-.03.515-.03.515-.03.515-.03.515-.03.515-.03.515-.03.515-.03.515-.03.515-.03.515-.03.515-.03.515-.03.515-.03.515-.03.515-.03.515-.03.515-.03.515-.03.515-.033.515-.03.515-.034.515-.03.515-.036.515-.03.515-.036.515-.033.515-.04.515-.03.515-.04.515-.033.515-.037.515-.038.515-.04.515-.034.515-.03.515-.034.515-.036.515-.04.515-.04.515-.036.515-.04.515-.032.515-.04.515-.035.515-.04.515-.037.515-.04.515-.04.515-.04.515-.04.515-.04.515-.04.515-.04.515-.04.515-.04.515-.04.515-.04.515-.04.515-.04.515-.04.515-.043.515-.04.515-.04.515-.04.515-.043.515-.048.515-.047.515-.044.515-.04.515-.04.515-.05.515-.047.515-.047.515-.05.515-.05.515-.04.515-.05.515-.047.515-.046.515-.05.515-.05.515-.044.515-.05.515-.05.515-.044.515-.05.515-.05.515-.05.515-.05.515-.05.515-.05.515-.05.515-.05.515-.05.515-.05.515-.05.515-.05.515-.05.515-.057.515-.055.515-.05.515-.054.515-.053.515-.055.515-.056.515-.06.515-.06.515-.06.515-.05.515-.05.515-.054.515-.06.515-.055.515-.06.515-.06.515-.054.515-.06.515-.06.515-.06.515-.05.515-.06.515-.06.515-.06.515-.06.515-.06.515-.06.515-.06.515-.06.515-.06.515-.06.515-.064.515-.06.515-.06.515-.06.515-.06.515-.066.515-.07.515-.06.515-.065.515-.068.515-.064.515-.065.515-.06.515-.067.515-.067.515-.07.515-.06.515-.07.515-.07.515-.066.515-.07.515-.07.515-.07.515-.07.515-.07.515-.07.515-.07.515-.07.515-.07.515-.07.515-.07.515-.07.515-.07.515-.07.515-.076.515-.07.515-.07.515-.07.515-.076.515-.077.515-.075.515-.073.515-.07.515-.074.515-.075.515-.072.515-.073.515-.08.515-.076.515-.08.515-.076.515-.08.515-.073.515-.08.515-.08.515-.08.515-.08.515-.08.515-.08.515-.08.515-.08.515-.08.515-.085.515-.08.515-.085.515-.084.515-.084.515-.08.515-.085.515-.08.515-.09.515-.08.515-.09.515-.082.515-.084.515-.09.515-.088.515-.09.515-.084.515-.09.515-.09.515-.09.515-.09.515-.09.515-.09.515-.09.515-.09.515-.09.515-.09.515-.094.515-.09.515-.1.515-.09.515-.09.515-.09.515-.096.515-.097.515-.094.515-.094.515-.09.515-.096.515-.095.515-.1.515-.1.515-.095.515-.093.515-.1.515-.1.515-.1.515-.1.515-.1.515-.1.515-.1.515-.1.515-.1.515-.103.515-.1.515-.1.515-.1.515-.106.515-.1.515-.1.515-.1.515-.107.515-.107.515-.102.515-.107.515-.1.515-.11.515-.11.515-.11.515-.107.515-.11.515-.11.515-.11.515-.11.515-.11.515-.11.515-.11.515-.11.515-.11.515-.11.515-.11.515-.11.515-.11.515-.11.515-.11.515-.116.515-.12.515-.112.515-.112.515-.12.515-.118.515-.12.515-.12.515-.115.515-.12.515-.12.515-.12.515-.12.515-.12.515-.12.515-.12.515-.12.515-.12.515-.12.515-.12.515-.127.515-.13.515-.123.515-.125.515-.124.515-.122.515-.13.515-.126.515-.124.515-.13.515-.124.515-.13.515-.125.515-.13.515-.13.515-.13.515-.13.515-.13.515-.13.515-.13.515-.13.515-.13.515-.13.515-.135.515-.133.515-.135.515-.13.515-.14.515-.14.515-.13.515-.14.515-.136.515-.134.515-.14.515-.14.515-.14.515-.14.515-.134.515-.14.515-.14.515-.14.515-.14.515-.14.515-.14.515-.14.515-.147.515-.148.515-.14.515-.143.515-.147.515-.14.515-.15.515-.147.515-.15.515-.15.515-.15.515-.15.515-.15.515-.15.515-.15.515-.15.515-.15.515-.15.515-.15.515-.154.515-.15.515-.155.515-.15.515-.15.515-.16.515-.154.515-.16.515-.155.515-.16.515-.16.515-.155.515-.157.515-.16.515-.15.515-.16.515-.16.515-.16.515-.16.515-.164.515-.16.515-.16.515-.16.515-.16.515-.165.515-.16.515-.16.515-.166.515-.16.515-.17.515-.168.515-.166.515-.17.515-.17.515-.17.515-.17.515-.17.515-.17.515-.17.515-.17.515-.17.515-.17.515-.17.515-.17.515-.177.515-.17.515-.18.515-.173.515-.173.515-.177.515-.18.515-.18.515-.18.515-.177.515-.18.515-.18.515-.18.515-.18.515-.186.515-.18.515-.18.515-.18.515-.184.515-.18.515-.188.515-.187.515-.19.515-.18.515-.18.515-.185.515-.19.515-.186.515-.19.515-.19.515-.19.515-.19.515-.19.515-.2.515-.19.515-.193.515-.19.515-.19.515-.19.515-.196.515-.193.515-.196.515-.19.515-.2.515-.19.515-.2.515-.2.515-.198.515-.2.515-.2.515-.2.515-.2.515-.2.515-.2.515-.2.515-.206.515-.2.515-.205.515-.21.515-.21.515-.207.515-.21.515-.208.515-.21.515-.21.515-.21.515-.21.515-.21.515-.21.515-.21.515-.21.515-.217.515-.21.515-.21.515-.215.515-.216.515-.213.515-.212.515-.21.515-.21.515-.218.515-.213.515-.22.515-.215.515-.22.515-.22.515-.22.515-.228.515-.22.515-.225.515-.223.515-.226.515-.23.515-.227.515-.23.515-.227.515-.226.515-.23.515-.224.515-.23.515-.23.515-.23.515-.23.515-.23.515-.23.515-.23.515-.23.515-.24.515-.238.515-.23.515-.23.515-.232.515-.232.515-.24.515-.23.515-.24.515-.232.515-.24.515-.24.515-.24.515-.24.515-.24.515-.24.515-.24.515-.24.515-.25.515-.246.515-.244.515-.24.515-.247.515-.25.515-.25.515-.25.515-.25.515-.25.515-.25.515-.25.515-.25.515-.25.515-.25.515-.254.515-.25.515-.26.515-.254.515-.25.515-.26.515-.256.515-.26.515-.257.515-.26.515-.26.515-.26.515-.26.515-.26.515-.26.515-.263.515-.26.515-.264.515-.26.515-.27.515-.264.515-.26.515-.267.515-.27.515-.263.515-.27.515-.263.515-.27.515-.27.515-.27.515-.27.515-.27.515-.28.515-.27.515-.275.515-.273.515-.28.515-.277.515-.272.515-.28.515-.28.515-.28.515-.272.515-.28.515-.28.515-.28.515-.288.515-.28.515-.28.515-.283.515-.283.515-.28.515-.29.515-.288.515-.29.515-.29.515-.29.515-.29.515-.29.515-.29.515-.29.515-.29.515-.29.515-.3.515-.294.515-.296.515-.29.515-.29.515-.3.515-.3.515-.3.515-.298.515-.3.515-.3.515-.3.515-.3.515-.302.515-.3.515-.305.515-.305.515-.3.515-.307.515-.303.515-.31.515-.31.515-.305.515-.31.515-.31.515-.31.515-.31.515-.31.515-.31.515-.315.515-.317.515-.31.515-.318.515-.316.515-.32.515-.32.515-.315.515-.32.515-.32.515-.32.515-.32.515-.32.515-.32.515-.32.515-.32.515-.327.515-.323.515-.32.515-.33.515-.326.515-.326.515-.33.515-.328.515-.33.515-.33.515-.33.515-.33.515-.334.515-.333.515-.33.515-.34.515-.335.515-.34.515-.335.515-.33.515-.34.515-.337.515-.34.515-.34.515-.34.515-.34.515-.35.515-.344.515-.34.515-.345.515-.35.515-.347.515-.348.515-.35.515-.35.515-.344.515-.35.515-.35.515-.35.515-.35.515-.353.515-.354.515-.35.515-.36.515-.36.515-.355.515-.36.515-.358.515-.36.515-.356.515-.36.515-.36.515-.36.515-.365.515-.36.515-.36.515-.36.515-.37.515-.368.515-.37.515-.365.515-.37.515-.363.515-.37.515-.37.515-.37.515-.37.515-.38.515-.37.515-.375.515-.37.515-.374" class="line"/>
    <text text-anchor="middle" alignment-baseline="hanging" transform="rotate(-90 3.75 58.75)">
      Value
    </text>
    <text text-anchor="middle" transform="translate(257.5 170)">
      Time elapsed
    </text>
  </g>
  <g class="focus" transform="translate(193.75 143.04)">
    <circle r="5" fill="#4682b4" stroke="#fff" stroke-width="2" class="line"/>
    <rect width="36" height="18" x="10" y="-9" fill="#fff" stroke="#4682b4" stroke-width="2"/>
    <text x="28" y="5" text-anchor="middle" font-weight="bold">
      502
    </text>
  </g>
</svg>
