<svg xmlns="http://www.w3.org/2000/svg" viewBox="0 0 477.19 477.19">
  <path d="M477.02 36.1a14.1 14.1 0 0 0-.44-3.28c.09-6.56-4.1-13.2-12.56-13.2H431.1c-.64 0-1.2.11-1.79.19-3.6-.7-7.5.18-10.87 3.62-7.59 7.75-14.04 16.52-19.85 25.66h-17.03c-4.71-6.28-8.79-13.04-12.83-19.76-1.2-5.23-5.22-9.7-12.16-9.7H141.63c-.71 0-1.34.1-2 .2-3.96-.58-8.13.4-10.66 3.6-6.39 8.11-11.7 16.43-15.8 25.66H90.82c-3.4-7.2-6.73-14.43-10.77-21.3-.35-.59-.74-1.06-1.14-1.56-1.54-4.63-5.48-8.34-11.82-8.34-14.74 0-38.06-4.86-51.76-.5C-9.44 25.27 3.05 61.5 3.87 79.8c1.24 27.83.23 55.94.38 83.8.34 63.37.99 126.75 1.81 190.12.38 28.75.71 57.5 1.24 86.23.07 4.1 1.7 7.17 4.08 9.26.88 5.64 5 10.67 12.38 10.67 12.74 0 25.48-.06 38.13-1.73 1-.13 1.94-.34 2.87-.6 5.4.23 10.96-2.4 13.13-8.94 2.57-7.71 4.87-15.45 6.2-23.39h25.22a44.17 44.17 0 0 1 3.71 16.47c.05 2.13.52 3.98 1.28 5.56 1.57 4.72 5.48 8.7 11.72 9.17 62.89 4.84 157.09 5.2 220.13 5.2 1.23 0 2.35-.18 3.4-.44 5.33.2 10.7-2.5 12.6-9.1a723.6 723.6 0 0 1 7.85-25.13h18.52c3.41 6.5 6.81 13 9.23 19.92.32.92.73 1.8 1.2 2.61a13.3 13.3 0 0 0 11.33 8.67c15.57 1.6 31.17 1.73 46.8 1.73 1.27 0 2.4-.19 3.48-.46 6.62.16 13.23-4 12.98-12.54-3.03-104.03 4.88-306.75 3.48-410.78zm-29.7 397.7c-9.09-.08-18.18-.25-27.24-.85-3.67-8.74-8.15-17.08-12.44-25.56-2.38-4.72-7.89-6.9-12.94-6.26-.58-.07-1.13-.18-1.75-.18h-32.93c-7.52 0-11.64 5.24-12.41 11-.04.1-.09.18-.12.28-2.6 7.77-5.1 15.56-7.5 23.38-56.98-.03-145.14-.5-202-4.37a77.13 77.13 0 0 0-9.4-25.58c-2.92-5.03-7.53-6.69-11.96-6.17a14.67 14.67 0 0 0-2.74-.27H72.3c-7.6 0-11.7 5.34-12.42 11.18-.32 1.1-.54 2.25-.57 3.55-.15 6.48-1.72 12.73-3.61 18.88-7.48.7-14.99.94-22.5 1.02-1.71-94.44-3.3-287.69-3.36-382.15 0-2.61-.67-4.79-1.73-6.58V43.9h31.14c4.46 8.06 8.15 16.5 12.23 24.76 2.15 4.34 6.97 6.46 11.65 6.31.44.04.85.13 1.31.13h36.4c4.63 0 7.94-2.02 10.01-4.9a14.9 14.9 0 0 0 4.26-6.37 74.14 74.14 0 0 1 9.48-18.2h203.64a252.55 252.55 0 0 0 16.48 23.93 9.82 9.82 0 0 0 5.3 3.32 12.44 12.44 0 0 0 7.36 2.22h29.46c6.92 0 10.93-4.44 12.14-9.64a141.55 141.55 0 0 1 14.4-19.82h17.7c.8 96.48-5.73 291.67-3.73 388.16z"/>
  <path d="M117.36 104.56H72.3c-9.57 0-13.65 8.46-12.3 15.73-.42 1.27-.7 2.64-.7 4.2v23.54c-3.5 7.7.23 18.93 11.26 18.93 15.05 0 30.1-.01 45.07-1.73a18.79 18.79 0 0 0 2.65-.5c6.17-.38 12.08-4.51 12.08-12.5v-29.47c0-1.37-.22-2.58-.55-3.73.7-6.95-3.43-14.47-12.45-14.47zm-13 35.63c-6.35.4-12.7.6-19.07.68v-10.3h19.07v9.62zm13 68.37H72.3c-9.57 0-13.65 8.46-12.3 15.73a13.5 13.5 0 0 0-.7 4.2v23.53c-3.5 7.7.23 18.94 11.26 18.94 15.05-.01 30.1-.02 45.07-1.74.9-.1 1.79-.27 2.65-.5 6.17-.37 12.08-4.5 12.08-12.5v-29.46c0-1.37-.22-2.58-.55-3.73.7-6.95-3.43-14.47-12.45-14.47zm-13 35.63c-6.35.4-12.7.6-19.07.68v-10.31h19.07v9.63zm13 68.36H72.3c-9.57 0-13.65 8.46-12.3 15.73a13.5 13.5 0 0 0-.7 4.2v23.54c-3.5 7.7.23 18.93 11.26 18.93 15.05 0 30.1 0 45.07-1.73.9-.1 1.79-.27 2.65-.5 6.17-.38 12.08-4.51 12.08-12.5v-29.47c0-1.36-.22-2.58-.55-3.73.7-6.95-3.43-14.47-12.45-14.47zm-13 35.64c-6.35.4-12.7.6-19.07.68v-10.32h19.07v9.64zm293.8-243.63h-45.07c-9.57 0-13.65 8.46-12.3 15.73-.42 1.28-.7 2.65-.7 4.2v23.54c-3.5 7.7.23 18.93 11.27 18.93 15.04 0 30.1-.01 45.06-1.73a18.87 18.87 0 0 0 2.65-.5c6.17-.38 12.08-4.51 12.08-12.5v-29.47c0-1.37-.22-2.58-.54-3.73.68-6.95-3.44-14.47-12.46-14.47zm-13 35.63a371 371 0 0 1-19.07.68v-10.3h19.06v9.62zm13 68.37h-45.07c-9.57 0-13.65 8.46-12.3 15.73-.42 1.27-.7 2.64-.7 4.2v23.53c-3.5 7.7.23 18.94 11.27 18.94 15.04-.01 30.1-.02 45.06-1.74a18.87 18.87 0 0 0 2.65-.5c6.17-.37 12.08-4.5 12.08-12.5v-29.46c0-1.37-.22-2.58-.54-3.73.68-6.95-3.44-14.47-12.46-14.47zm-13 35.63c-6.36.4-12.71.6-19.07.68v-10.31h19.06v9.63zm13 68.36h-45.07c-9.57 0-13.65 8.46-12.3 15.73-.42 1.28-.7 2.65-.7 4.2v23.54c-3.5 7.7.23 18.93 11.27 18.93 15.04 0 30.1 0 45.06-1.73a19.01 19.01 0 0 0 2.65-.5c6.17-.38 12.08-4.51 12.08-12.5v-29.47c0-1.36-.22-2.58-.54-3.73.68-6.95-3.44-14.47-12.46-14.47zm-13 35.64c-6.36.4-12.71.6-19.07.68v-10.32h19.06v9.64zm-102.18-130.9c-28.15-25.42-66.3-44.84-101.5-58.53-29.31-11.39-12.2 149.29-11.25 159.86.02.32.12.58.17.88-1.3 9.2 8.59 19.73 19.4 13.81 28.58-15.67 56.74-32.13 83.79-50.35 22.15-14.9 33.33-28.05 26.1-44.75-2.76-6.36-8.2-13.23-16.7-20.92zm-88.13 83.43a1363.59 1363.59 0 0 1-3.82-96.5c0-1.25-.2-2.38-.47-3.45.28-1.07.47-2.2.47-3.48v-6.5a327.99 327.99 0 0 1 86.84 57.64c-26.7 19.01-54.52 36.17-83.02 52.3z"/>
</svg>
