<svg x="0%" y="0%" width="100%" height="80" xmlns="http://www.w3.org/2000/svg" xmlns:xlink="http://www.w3.org/1999/xlink">

  <symbol id="corner" viewBox="0 0 50 50">
		<path d="M17,18v6l-3,3v-9H17"/>
		<path d="M11,14v3h13l3-3H11"/>
		<rect x="14" y="11" width="3" height="2"/>
		<polygon points="14,6 14,0 50,0 50,3 17,3 17,6 	"/>
		<polygon points="0,14 6,14 6,17 3,17 3,50 0,50 	"/>
		<polygon points="10,6 10,0 0,0 0,10 32,10 35,7 3,7 3,3 7,3 7,6 	"/>
		<polygon points="7,11 10,11 10,30 7,33 	"/>
	</symbol>

	<symbol id="diamond" viewBox="0 0 14 14">
		<path d="M7,0L0,7l7,7l7-7L7,0z M4,7l3-3l3,3l-3,3L4,7z"/>
	</symbol>

	<mask id="mask">
		<rect x="0" y="0" width="100%" height="100%" fill="white"/>
		<rect x="0%" y="0%" width="60" height="60" fill="black"/>
		<rect x="-100%" y="0%" width="60" height="60" transform="scale(-1,1)" fill="black"/>
		<circle r="12" cx="50%" cy="10" fill="black"/>
	</mask>

	<rect mask="url(#mask)" class="line" x="0" y="8" width="100%" height="2" />

	<use xlink:href="#corner" x="0%" y="0%" width="40" height="40" transform="translate(8 8)" />
	<use xlink:href="#diamond" x="50%" y="4" width="12" height="12" transform="translate(-6)"/>
	<use xlink:href="#corner" x="-100%" y="0%" width="40" height="40" transform="scale(-1,1) translate(8 8)"/>
</svg>
