<svg viewBox="0 0 600 50" xmlns="http://www.w3.org/2000/svg" xmlns:xlink="http://www.w3.org/1999/xlink">

  <symbol id="corner" viewBox="0 0 50 50" preserveAspectRatio="xMidYMid meet">
    <path d="M17,18v6l-3,3v-9H17"/>
    <path d="M11,14v3h13l3-3H11"/>
    <rect x="14" y="11" width="3" height="2"/>
    <polygon points="14,6 14,0 50,0 50,3 17,3 17,6 	"/>
    <polygon points="0,14 6,14 6,17 3,17 3,50 0,50 	"/>
    <polygon points="10,6 10,0 0,0 0,10 32,10 35,7 3,7 3,3 7,3 7,6 	"/>
    <polygon points="7,11 10,11 10,30 7,33 	"/>
  </symbol>

  <symbol id="diamond" viewBox="0 0 14 14">
  	<path d="M7,0L0,7l7,7l7-7L7,0z M4,7l3-3l3,3l-3,3L4,7z"/>
  </symbol>

  <rect x="44" y="5" width="246" height="2" />
  <rect x="310" y="5" width="246" height="2" />
  <use xlink:href="#corner" x="8" y="5" width="30" height="30" />
  <use xlink:href="#diamond" x="295" y="1" width="10" height="10"/>
  <use xlink:href="#corner" x="592" y="5" width="30" height="30" transform="rotate(90, 592, 5)"/>
</svg>
