<svg version="1" xmlns="http://www.w3.org/2000/svg" width="1000" height="1000" viewBox="0 0 750.000000 750.000000"><path d="M311.8 13.5c-48 6.8-82 21.6-106.9 46.4-24.1 24.2-31.1 43.8-40.4 112.8-5.9 44.1-10.8 66.9-18.3 84.8-2.7 6.6-3 7-5.8 6.6-1.6-.2-15.9-.4-31.9-.4h-29l-11.9 3.1c-21.7 5.9-35.4 13-47.1 24.6-11.7 11.6-18.7 28.4-17 41 3.2 23.1 20.7 42.5 50.6 55.7 11.9 5.2 24.3 9.9 26.3 9.9 1.5 0 3.8-5 9.2-20.4 2.2-6 4.5-11.1 5.2-11.3 1.5-.6 9.8 5.6 17.4 13.1 6.7 6.6 7.4 8.4 13.9 37.1 11.3 50.2 20.6 69 38.2 77.4 12.4 5.9 19 6.6 60.7 6.6 35-.1 38.2-.2 48-2.3 35.3-7.5 51.5-29.1 64.4-85.7 4.7-20.2 7.1-27.7 9.9-30.3 7.2-6.7 24.1-9.2 35.9-5.3 7.1 2.4 10.8 5.6 13.3 11.3.8 2.1 3.6 12.2 6 22.5 5.4 22.2 8.6 33.3 12.5 42.5 7.6 17.8 22 33.8 36.2 40.3 15.6 7 64.8 10.7 94.6 7 34.8-4.3 43.7-10.3 54.8-36.7 5.9-14 9.2-26.3 20.2-74.8.6-2.9 18.9-21.5 22.2-22.5 2.8-.9 4.7 1.2 5.6 6.1 1 5.6 2.7 6.2 10.3 3.5 10.7-3.7 34.4-15.5 42.8-21.2 9.2-6.4 27.5-23.8 34-32.3 5.3-7.1 7.8-12.5 10.1-21.9 1.9-8 2-7.9-8.3-13-13.9-6.8-29.2-10.5-54.5-13.1-8.5-.9-22.2-2.3-30.5-3.2-16.3-1.7-47.2-6.4-58.8-9-8.6-1.9-15.2-5.5-17.6-9.5-1-1.7-2.2-6.2-2.6-10.1-.3-3.9-1.7-9.5-3.1-12.6-1.5-3.4-3-9.8-3.9-17-2-15.3-3-18.2-8-24.1-4.9-5.7-4.4-3.4-9-38.6-7.4-55.2-12.6-74.5-26.1-96.2-9.4-15.2-28.4-31.3-43-36.4-5.5-2-7.2-2-34.9-1.4-26.4.6-30.6.5-47-1.5-23.1-2.9-71.5-3.7-86.7-1.5zM174.4 281c53.7 8.8 100.5 14.9 171.6 22.5 28.3 3 74.8 6.6 98.5 7.6 13.2.6 53.5 1.1 89.5 1.2 66.8.1 73.5-.1 110-4.3 4.7-.6 12.5-1.5 17.4-2 12.4-1.5 31.5-4.6 48.8-8.1 15.3-3 20.3-3.5 19.4-2-1.3 2-25.5 7.4-54.2 12.1-15.5 2.6-49.3 7-53.1 7-2.2 0-1.5 2.2 2.7 9 5.2 8.4 5.2 9.4 0 8.6-11.2-1.8-47.7-3.6-72.5-3.6-44.4 0-92.8 3.3-125 8.5-24.6 4-38.2 4.8-67.4 4.2-25.5-.6-32.1-1.2-53.1-5.1-26.3-4.9-60.5-7-114.5-7-40.3 0-67.4 1-78.7 3-2.2.4-3.8.3-3.8-.3 0-2.9 29.1-43.9 37.1-52.1 2.6-2.8 3.7-3.3 6.2-2.8 1.6.3 11.1 1.9 21.1 3.6zM215.1 572.6c-3.8 4.8-2.8 7.3 7.9 21.4 21.1 27.7 57.3 53.8 89.4 64.5 35.1 11.7 77 12 112.9.9 17-5.3 43.7-20.1 59.7-33.1 15.7-12.7 39.9-40 41.6-46.9.9-3.4-1-7.2-4.1-8.6-3.4-1.5-8.1.5-26.2 11.1-32 18.6-70.3 31.7-104.6 35.7-45.6 5.3-99.7-8-149.2-36.6-13.4-7.7-20.3-11-23.2-11-1.2 0-3.1 1.2-4.2 2.6z"/></svg>