<?xml version="1.0" standalone="no"?>
<!DOCTYPE svg PUBLIC "-//W3C//DTD SVG 20010904//EN"
 "http://www.w3.org/TR/2001/REC-SVG-20010904/DTD/svg10.dtd">
<svg version="1.0" xmlns="http://www.w3.org/2000/svg"
 width="1280.000000pt" height="1280.000000pt" viewBox="0 0 1280.000000 1280.000000"
 preserveAspectRatio="xMidYMid meet">
<metadata>
Created by potrace 1.11, written by Peter Selinger 2001-2013
</metadata>
<g transform="translate(0.000000,1280.000000) scale(0.100000,-0.100000)"
fill="#000000" stroke="none">
<path d="M6300 9980 c-144 -11 -378 -38 -475 -56 -44 -8 -107 -19 -140 -25
-71 -13 -263 -6 -420 16 -60 9 -168 18 -240 22 -221 10 -328 -21 -531 -157
-377 -253 -593 -630 -713 -1240 -16 -85 -48 -306 -71 -490 -22 -184 -52 -408
-65 -498 l-24 -163 -65 -62 c-55 -53 -67 -72 -84 -129 -12 -39 -25 -124 -32
-207 -15 -194 -36 -269 -94 -338 -24 -29 -25 -34 -17 -99 25 -209 -90 -302
-448 -360 -456 -73 -538 -85 -671 -98 -80 -9 -235 -22 -345 -31 -351 -28 -611
-69 -770 -121 -158 -51 -365 -158 -365 -188 0 -46 37 -194 67 -271 162 -409
526 -699 1199 -955 155 -59 579 -192 779 -244 581 -152 1657 -327 2515 -410
1203 -117 2502 -110 3665 19 544 61 940 121 1265 191 1041 226 1555 594 1596
1142 5 73 3 101 -15 167 -101 368 -435 642 -931 764 -224 55 -320 65 -590 66
-226 0 -324 -8 -484 -38 -17 -3 -62 101 -121 278 -99 297 -126 433 -210 1045
-93 685 -127 859 -220 1150 -71 219 -184 397 -379 599 -397 409 -965 640
-1756 716 -165 16 -618 18 -810 5z m695 -160 c265 -17 471 -50 730 -117 521
-133 946 -418 1203 -806 134 -203 202 -397 252 -722 60 -385 115 -802 155
-1170 9 -82 18 -167 22 -187 l6 -38 -144 50 c-79 28 -211 75 -294 105 -1226
447 -1979 651 -2755 744 -129 16 -425 41 -480 41 -10 0 -41 97 -69 220 -60
266 -72 435 -77 1064 -4 385 -8 544 -16 554 -32 38 -116 66 -293 97 -114 20
-176 40 -242 76 -29 16 -53 26 -53 23 0 -3 31 -36 68 -73 114 -113 187 -244
233 -416 31 -117 38 -391 14 -557 -32 -229 -119 -535 -226 -793 -91 -221 -98
-234 -122 -240 -12 -2 -92 -18 -177 -35 -292 -58 -560 -148 -800 -271 -69 -35
-128 -65 -132 -67 -4 -2 -5 12 -2 30 2 18 20 168 40 333 69 585 115 842 209
1160 89 301 198 513 342 666 128 135 221 190 419 244 234 65 390 59 562 -20
l76 -35 175 35 c263 53 542 89 841 109 113 7 390 5 535 -4z m-20 -3544 c977
-35 1990 -102 2510 -167 183 -23 247 -45 253 -85 4 -25 -24 -35 -268 -93 -559
-133 -1905 -337 -2688 -406 -97 -9 -265 -24 -372 -35 -1154 -113 -2536 -147
-3485 -85 -587 39 -1145 112 -1557 205 -213 48 -418 102 -418 110 0 15 29 30
116 59 120 40 271 64 679 106 640 67 971 108 1204 151 138 25 392 88 498 123
172 56 761 111 1403 131 403 12 1604 4 2125 -14z"/>
<path d="M6671 9705 c-279 -63 -452 -207 -539 -447 -38 -106 -52 -198 -52
-340 0 -110 6 -159 19 -157 3 0 21 31 39 69 137 287 444 455 798 437 565 -30
1194 -431 1454 -928 28 -55 54 -99 57 -99 3 0 2 37 -2 83 -8 102 -48 287 -81
373 -173 460 -629 848 -1153 981 -123 31 -153 35 -306 39 -125 3 -187 0 -234
-11z"/>
<path d="M4874 9582 c-181 -63 -403 -330 -580 -697 -75 -155 -124 -291 -127
-353 -3 -62 19 -67 41 -10 63 162 184 366 299 502 62 73 182 175 241 205 198
98 314 -1 351 -299 8 -64 8 -65 20 -35 45 105 65 348 37 450 -29 109 -94 197
-175 239 -37 20 -44 20 -107 -2z"/>
</g>
</svg>
