<svg xmlns="http://www.w3.org/2000/svg" viewBox="0 0 600 200">
  <g transform="translate(65 20)">
    <rect width="515" height="125" fill="rgba(100, 100, 100, 0.075)" class="overlay"/>
    <g fill="none" class="xAxis" font-size="12" text-anchor="middle">
      <path stroke="#000" d="M.5 125v.5h515v-.5" class="domain"/>
      <g class="tick">
        <line x1=".5" x2=".5" y2="125" stroke="#000" opacity=".2"/>
        <text x=".5" y="135" fill="#000" dy=".71em">
          0s
        </text>
      </g>
      <g class="tick" transform="translate(128.75)">
        <line x1=".5" x2=".5" y2="125" stroke="#000" opacity=".2"/>
        <text x=".5" y="135" fill="#000" dy=".71em">
          1s
        </text>
      </g>
      <g class="tick" transform="translate(257.5)">
        <line x1=".5" x2=".5" y2="125" stroke="#000" opacity=".2"/>
        <text x=".5" y="135" fill="#000" dy=".71em">
          2s
        </text>
      </g>
      <g class="tick" transform="translate(386.25)">
        <line x1=".5" x2=".5" y2="125" stroke="#000" opacity=".2"/>
        <text x=".5" y="135" fill="#000" dy=".71em">
          3s
        </text>
      </g>
      <g class="tick" transform="translate(515)">
        <line x1=".5" x2=".5" y2="125" stroke="#000" opacity=".2"/>
        <text x=".5" y="135" fill="#000" dy=".71em">
          4s
        </text>
      </g>
    </g>
    <g fill="none" class="yAxis" font-size="12" text-anchor="end">
      <path stroke="#000" d="M0 125.5h-.5V.5H0" class="domain"/>
      <g class="tick" transform="translate(515 125)">
        <line x2="-515" y1=".5" y2=".5" stroke="#000" opacity=".2"/>
        <text x="-525" y=".5" fill="#000" dy=".32em">
          500
        </text>
      </g>
      <g class="tick" transform="translate(515 93.72)">
        <line x2="-515" y1=".5" y2=".5" stroke="#000" opacity=".2"/>
        <text x="-525" y=".5" fill="#000" dy=".32em">
          525
        </text>
      </g>
      <g class="tick" transform="translate(515 62.437)">
        <line x2="-515" y1=".5" y2=".5" stroke="#000" opacity=".2"/>
        <text x="-525" y=".5" fill="#000" dy=".32em">
          550
        </text>
      </g>
      <g class="tick" transform="translate(515 31.156)">
        <line x2="-515" y1=".5" y2=".5" stroke="#000" opacity=".2"/>
        <text x="-525" y=".5" fill="#000" dy=".32em">
          575
        </text>
      </g>
      <g class="tick" transform="translate(515 -.125)">
        <line x2="-515" y1=".5" y2=".5" stroke="#000" opacity=".2"/>
        <text x="-525" y=".5" fill="#000" dy=".32em">
          600
        </text>
      </g>
    </g>
    <path fill="none" stroke="#4682b4" stroke-width="2" d="M0 125l.515-.125.515-.125.515-.125.515-.126.515-.127.515-.125.515-.126.515-.125.515-.126.515-.124.515-.126.515-.126.515-.125.515-.126.515-.125.515-.126.515-.125.515-.126.515-.125.515-.127.515-.125.515-.125.515-.125.515-.125.515-.125.515-.125.515-.125.515-.126.515-.125.515-.124.515-.125.515-.124.515-.125.515-.125.515-.125.515-.125.515-.125.515-.125.515-.125.515-.125.515-.125.515-.125.515-.125.515-.126.515-.125.515-.127.515-.125.515-.126.515-.125.515-.126.515-.124.515-.127.515-.126.515-.125.515-.126.515-.125.515-.126.515-.125.515-.126.515-.126.515-.125.515-.125.515-.125.515-.125.515-.125.515-.125.515-.125.515-.126.515-.124.515-.125.515-.124.515-.125.515-.125.515-.125.515-.124.515-.126.515-.125.515-.125.515-.125.515-.125.515-.125.515-.125.515-.125.515-.126.515-.127.515-.125.515-.126.515-.125.515-.126.515-.124.515-.126.515-.126.515-.125.515-.126.515-.125.515-.126.515-.125.515-.126.515-.125.515-.127.515-.125.515-.125.515-.125.515-.125.515-.125.515-.125.515-.125.515-.126.515-.125.515-.124.515-.125.515-.124.515-.125.515-.125.515-.125.515-.125.515-.125.515-.125.515-.125.515-.125.515-.125.515-.125.515-.125.515-.126.515-.125.515-.127.515-.125.515-.126.515-.125.515-.126.515-.124.515-.127.515-.126.515-.125.515-.126.515-.125.515-.126.515-.125.515-.126.515-.126.515-.125.515-.125.515-.125.515-.125.515-.125.515-.125.515-.125.515-.126.515-.124.515-.125.515-.124.515-.125.515-.125.515-.125.515-.124.515-.126.515-.125.515-.125.515-.125.515-.125.515-.125.515-.125.515-.125.515-.126.515-.127.515-.125.515-.126.515-.125.515-.126.515-.124.515-.126.515-.126.515-.125.515-.126.515-.125.515-.126.515-.125.515-.126.515-.125.515-.127.515-.125.515-.125.515-.125.515-.125.515-.125.515-.125.515-.125.515-.126.515-.125.515-.124.515-.125.515-.124.515-.125.515-.125.515-.125.515-.125.515-.125.515-.125.515-.125.515-.125.515-.125.515-.125.515-.125.515-.126.515-.125.515-.127.515-.125.515-.126.515-.125.515-.126.515-.124.515-.127.515-.126.515-.125.515-.126.515-.125.515-.126.515-.125.515-.126.515-.126.515-.125.515-.125.515-.125.515-.125.515-.125.515-.125.515-.125.515-.126.515-.124.515-.125.515-.124.515-.125.515-.125.515-.125.515-.124.515-.126.515-.125.515-.125.515-.125.515-.125.515-.125.515-.125.515-.125.515-.126.515-.127.515-.125.515-.126.515-.125.515-.126.515-.124.515-.126.515-.126.515-.125.515-.126.515-.125.515-.126.515-.125.515-.126.515-.125.515-.127.515-.125.515-.125.515-.125.515-.125.515-.125.515-.125.515-.125.515-.126.515-.125.515-.124.515-.125.515-.124.515-.125.515-.125.515-.125.515-.125.515-.125.515-.125.515-.125.515-.125.515-.125.515-.125.515-.125.515-.126.515-.125.515-.127.515-.125.515-.126.515-.125.515-.126.515-.124.515-.127.515-.126.515-.125.515-.126.515-.125.515-.126.515-.125.515-.126.515-.126.515-.125.515-.125.515-.125.515-.125.515-.125.515-.125.515-.125.515-.126.515-.124.515-.125.515-.124.515-.125.515-.125.515-.125.515-.124.515-.126.515-.125.515-.125.515-.125.515-.125.515-.125.515-.125.515-.125.515-.126.515-.127.515-.125.515-.126.515-.125.515-.126.515-.124.515-.126.515-.126.515-.125.515-.126.515-.125.515-.126.515-.125.515-.126.515-.125.515-.127.515-.125.515-.125.515-.125.515-.125.515-.125.515-.125.515-.125.515-.126.515-.125.515-.124.515-.125.515-.124.515-.125.515-.125.515-.125.515-.125.515-.125.515-.125.515-.125.515-.125.515-.125.515-.125.515-.125.515-.126.515-.125.515-.127.515-.125.515-.126.515-.125.515-.126.515-.124.515-.127.515-.126.515-.125.515-.126.515-.125.515-.126.515-.125.515-.126.515-.126.515-.125.515-.125.515-.125.515-.125.515-.125.515-.125.515-.125.515-.126.515-.124.515-.125.515-.124.515-.125.515-.125.515-.125.515-.124.515-.126.515-.125.515-.125.515-.125.515-.125.515-.125.515-.125.515-.125.515-.126.515-.127.515-.125.515-.126.515-.125.515-.126.515-.124.515-.126.515-.126.515-.125.515-.126.515-.125.515-.126.515-.125.515-.126.515-.125.515-.127.515-.125.515-.125.515-.125.515-.125.515-.125.515-.125.515-.125.515-.126.515-.125.515-.124.515-.125.515-.124.515-.125.515-.125.515-.125.515-.125.515-.125.515-.125.515-.125.515-.125.515-.125.515-.125.515-.125.515-.126.515-.125.515-.127.515-.125.515-.126.515-.125.515-.126.515-.124.515-.127.515-.126.515-.125.515-.126.515-.125.515-.126.515-.125.515-.126.515-.126.515-.125.515-.125.515-.125.515-.125.515-.125.515-.125.515-.125.515-.126.515-.124.515-.125.515-.124.515-.125.515-.125.515-.125.515-.124.515-.126.515-.125.515-.125.515-.125.515-.125.515-.125.515-.125.515-.125.515-.126.515-.127.515-.125.515-.126.515-.125.515-.126.515-.124.515-.126.515-.126.515-.125.515-.126.515-.125.515-.126.515-.125.515-.126.515-.125.515-.127.515-.125.515-.125.515-.125.515-.125.515-.125.515-.125.515-.125.515-.126.515-.125.515-.124.515-.125.515-.124.515-.125.515-.125.515-.125.515-.125.515-.125.515-.125.515-.125.515-.125.515-.125.515-.125.515-.125.515-.126.515-.125.515-.127.515-.125.515-.126.515-.125.515-.126.515-.124.515-.127.515-.126.515-.125.515-.126.515-.125.515-.126.515-.125.515-.126.515-.126.515-.125.515-.125.515-.125.515-.125.515-.125.515-.125.515-.125.515-.126.515-.124.515-.125.515-.124.515-.125.515-.125.515-.125.515-.124.515-.126.515-.125.515-.125.515-.125.515-.125.515-.125.515-.125.515-.125.515-.126.515-.127.515-.125.515-.126.515-.125.515-.126.515-.124.515-.126.515-.126.515-.125.515-.126.515-.125.515-.126.515-.125.515-.126.515-.125.515-.127.515-.125.515-.125.515-.125.515-.125.515-.125.515-.125.515-.125.515-.126.515-.125.515-.124.515-.125.515-.124.515-.125.515-.125.515-.125.515-.125.515-.125.515-.125.515-.125.515-.125.515-.125.515-.125.515-.125.515-.126.515-.125.515-.127.515-.125.515-.126.515-.125.515-.126.515-.124.515-.127.515-.126.515-.125.515-.126.515-.125.515-.126.515-.125.515-.126.515-.126.515-.125.515-.125.515-.125.515-.125.515-.125.515-.125.515-.125.515-.126.515-.124.515-.125.515-.124.515-.125.515-.125.515-.125.515-.124.515-.126.515-.125.515-.125.515-.125.515-.125.515-.125.515-.125.515-.125.515-.126.515-.127.515-.125.515-.126.515-.125.515-.126.515-.124.515-.126.515-.126.515-.125.515-.126.515-.125.515-.126.515-.125.515-.126.515-.125.515-.127.515-.125.515-.125.515-.125.515-.125.515-.125.515-.125.515-.125.515-.126.515-.125.515-.124.515-.125.515-.124.515-.125.515-.125.515-.125.515-.125.515-.125.515-.125.515-.125.515-.125.515-.125.515-.125.515-.125.515-.126.515-.125.515-.127.515-.125.515-.126.515-.125.515-.126.515-.124.515-.127.515-.126.515-.125.515-.126.515-.125.515-.126.515-.125.515-.126.515-.126.515-.125.515-.125.515-.125.515-.125.515-.125.515-.125.515-.125.515-.126.515-.124.515-.125.515-.124.515-.125.515-.125.515-.125.515-.124.515-.126.515-.125.515-.125.515-.125.515-.125.515-.125.515-.125.515-.125.515-.126.515-.127.515-.125.515-.126.515-.125.515-.126.515-.124.515-.126.515-.126.515-.125.515-.126.515-.125.515-.126.515-.125.515-.126.515-.125.515-.127.515-.125.515-.125.515-.125.515-.125.515-.125.515-.125.515-.125.515-.126.515-.125.515-.124.515-.125.515-.124.515-.125.515-.125.515-.125.515-.125.515-.125.515-.125.515-.125.515-.125.515-.125.515-.125.515-.125.515-.126.515-.125.515-.127.515-.125.515-.126.515-.125.515-.126.515-.124.515-.127.515-.126.515-.125.515-.126.515-.125.515-.126.515-.125.515-.126.515-.126.515-.125.515-.125.515-.125.515-.125.515-.125.515-.125.515-.125.515-.126.515-.124.515-.125.515-.124.515-.125.515-.125.515-.125.515-.124.515-.126.515-.125.515-.125.515-.125.515-.125.515-.125.515-.125.515-.125.515-.126.515-.127.515-.125.515-.126.515-.125.515-.126.515-.124.515-.126.515-.126.515-.125.515-.126.515-.125.515-.126.515-.125.515-.126.515-.125.515-.127.515-.125.515-.125.515-.125.515-.125.515-.125.515-.125.515-.125.515-.126.515-.125.515-.124.515-.125.515-.124.515-.125.515-.125.515-.125.515-.125.515-.125.515-.125.515-.125.515-.125.515-.125.515-.125.515-.125.515-.126.515-.125.515-.127.515-.125.515-.126.515-.125.515-.126.515-.124.515-.127.515-.126.515-.125.515-.126.515-.125.515-.126.515-.125.515-.126.515-.126.515-.125.515-.125.515-.125.515-.125.515-.125.515-.125.515-.125.515-.126.515-.124.515-.125.515-.124.515-.125.515-.125.515-.125.515-.124.515-.126.515-.125.515-.125.515-.125.515-.125.515-.125.515-.125.515-.125.515-.126.515-.127.515-.125.515-.126.515-.125.515-.126.515-.124.515-.126.515-.126.515-.125.515-.126.515-.125.515-.126.515-.125.515-.126.515-.125.515-.127.515-.125.515-.125.515-.125.515-.125.515-.125.515-.125.515-.125.515-.126.515-.125.515-.124.515-.125.515-.124.515-.125.515-.125.515-.125.515-.125.515-.125.515-.125.515-.125.515-.125.515-.125.515-.125.515-.125.515-.126.515-.125.515-.127.515-.125.515-.126.515-.125.515-.126.515-.124.515-.127.515-.126.515-.125.515-.126.515-.125.515-.126.515-.125.515-.126.515-.126.515-.125.515-.125.515-.125.515-.125.515-.125.515-.125.515-.125.515-.126.515-.124.515-.125.515-.124.515-.125.515-.125.515-.125.515-.124.515-.126.515-.125.515-.125.515-.125.515-.125.515-.125.515-.125.515-.125.515-.126.515-.127.515-.125.515-.126.515-.125.515-.126.515-.124.515-.126.515-.126.515-.125.515-.126.515-.125.515-.126.515-.125.515-.126.515-.125.515-.127.515-.125.515-.125.515-.125.515-.125.515-.125.515-.125.515-.125.515-.126.515-.125.515-.124.515-.125.515-.124.515-.125.515-.125.515-.125.515-.125.515-.125.515-.125.515-.125" class="line"/>
    <text text-anchor="middle" alignment-baseline="hanging" transform="rotate(-90 3.75 58.75)">
      Value
    </text>
    <text text-anchor="middle" transform="translate(257.5 170)">
      Time elapsed
    </text>
  </g>
  <g class="focus" transform="translate(193.75 113.72)">
    <circle r="5" fill="#4682b4" stroke="#fff" stroke-width="2" class="line"/>
    <rect width="36" height="18" x="10" y="-9" fill="#fff" stroke="#4682b4" stroke-width="2"/>
    <text x="28" y="5" text-anchor="middle" font-weight="bold">
      525
    </text>
  </g>
</svg>
