<svg xmlns="http://www.w3.org/2000/svg" width="484.947" height="484.947"><path d="M232.983 345.007c-6.142 1.803-11.093 6.398-14.727 13.67-3.725 7.475-4.936 14.076-3.702 20.195.815 4.042 2.557 8.379 4.659 11.598 5.558 8.536 14.787 13.427 25.311 13.427 5.688 0 11.481-1.427 16.758-4.134 8.434-4.331 14.487-11.938 16.188-20.367 1.482-7.317-.452-14.625-5.438-20.581-9.16-10.944-26.781-17.398-39.049-13.808zm22.551 29.736c-.102 1.265-1.787 3.499-5.316 5.606-4.388 2.631-9.991 1.438-12.695-2.701-1.513-2.315-1.348-6.505.353-9.146.51-.792 1.279-1.519 3.483-1.519 1.181 0 2.62.219 4.283.655a20.42 20.42 0 0 1 7.835 4.007c.808.681 2.144 1.976 2.057 3.098zM214.715 156.729c-2.11 0-4.119.495-5.865 1.43-5.677 1.394-9.486 6.116-9.595 12.065-.536 30.605 4.583 60.905 9.531 90.206 3.578 21.195 7.282 43.106 8.757 64.779.287 4.194 2.397 7.8 5.83 9.998 2.272 2.113 5.19 3.225 8.496 3.225h22.077c5.656 0 10.242-3.366 11.902-8.657a13.199 13.199 0 0 0 1.646-5.124c2.122-19.778 4.458-39.532 6.794-59.28 3.515-29.706 7.15-60.433 9.963-90.764.325-3.494-.68-6.729-2.838-9.095-2.229-2.447-5.591-3.852-9.212-3.856a13.604 13.604 0 0 0-1.63-.303 728.906 728.906 0 0 0-55.21-4.603l-.646-.021zm42.779 28.86c-2.609 26.383-5.758 53.075-8.805 78.933-1.899 16.087-3.788 32.174-5.573 48.281h-.993c-1.82-18.205-4.882-36.404-7.851-54.061-4.171-24.801-8.473-50.384-9.267-75.827a728.773 728.773 0 0 1 32.489 2.674z"/><path d="M259.871 34.656c-.787-2.6-2.301-4.897-4.266-6.769-3.082-3.593-7.114-5.012-11.126-4.853-4.019-.16-8.043 1.26-11.128 4.853-1.971 1.871-3.484 4.169-4.269 6.769-2.008 6.667-7.967 13.848-11.491 19.875-3.968 6.784-8.013 13.525-12.037 20.279-8.041 13.489-16.214 26.898-24.43 40.278-16.427 26.764-33.233 53.293-49.673 80.047-32.87 53.477-65.14 107.211-93.806 163.09-8.046 15.681-16.168 31.482-23.239 47.621-5.527 12.613-29.249 46.788-.348 49.805 151.813 15.822 303.823-3.134 455.832-4.337 9.729-.076 14.564-7.424 14.731-14.965.63-3.057.386-6.419-1.092-9.861-59.573-138.827-148.967-261.221-223.658-391.832zM39.205 426.809c56.289-125.483 135.914-238.112 205.274-356.48 68.192 116.382 146.343 227.188 202.449 350.146-135.963 2.52-271.913 17.119-407.723 6.334z"/></svg>