<svg xmlns="http://www.w3.org/2000/svg" width="491.975" height="491.974"><path d="M234.061 53.09c2.595-.059 5.189-.127 7.784-.163 1.727-.025 3.453-.056 5.18-.079 2.604-.03 5.21-.046 7.82-.066 2.6-.022 5.194-.058 7.789-.068-.513-12.162-1.071-24.034-1.722-35.338C260.258 5.966 250.965 0 242.129 0c-5.101 0-9.894 1.975-13.144 5.418-3.146 3.336-4.725 7.901-4.441 12.852.64 11.184 1.196 22.942 1.701 34.985 2.605-.079 5.21-.109 7.816-.165zM264.213 98.259c-.273.203-.543.412-.843.594.36.358.614.759.894 1.15-.015-.584-.035-1.16-.051-1.744zM245.214 197.129c1.732.021 3.468.033 5.197.054 2.605.035 5.205.104 7.811.149 2.6.048 5.194.089 7.794.15a6375.677 6375.677 0 0 0-.513-40.344c-2.6-.011-5.2-.036-7.795-.062-2.604-.022-5.204-.048-7.81-.083-1.731-.028-3.468-.058-5.2-.089-2.6-.048-5.2-.125-7.795-.193-2.605-.074-5.205-.145-7.81-.239.219 13.368.386 26.908.521 40.533 2.605.01 5.205.04 7.81.063 2.596.015 5.195.031 7.79.061zM250.889 303.764c-1.729.03-3.466.081-5.197.106-2.6.036-5.2.057-7.8.076-2.6.031-5.2.066-7.8.082 0 33.524-.104 66.333-.195 97.232-.079 25.715-.158 50.211-.168 72.854 0 5.372 2.118 10.155 5.959 13.461 3.296 2.839 7.645 4.397 12.235 4.397 10.375 0 18.2-7.672 18.2-17.854.01-22.628.086-47.113.162-72.813.102-31.112.198-64.17.198-97.938-2.601.091-5.2.152-7.8.223a1192 1192 0 0 1-7.794.174z"/><path d="M285.637 192.659c0 .015-.005.03-.01.045-.238 1.805-.563 3.595-.843 5.388-.863 5.469-1.838 10.925-2.757 16.389-4.159-.213-9.629-.427-15.864-.655-2.488-.089-5.078-.18-7.789-.269l-7.815-.262c-1.699-.056-3.453-.114-5.2-.17-2.562-.084-5.157-.173-7.79-.262-2.59-.086-5.19-.175-7.81-.264-12.007-.412-24.164-.858-34.947-1.356-10.598-.49-19.86-1.031-26.172-1.64-6.573-.635-9.859 4.093-9.948 9.199a11.7 11.7 0 0 0-.452 2.501c-1.176 17.753-1.341 35.551-2.6 53.299-.602 8.485 7.521 11.542 13.799 9.272 7.521.67 19.116 1.244 32.235 1.727 9.026.33 18.771.619 28.417.863 2.623.065 5.218.127 7.805.192 2.638.062 5.233.117 7.795.178 1.747.035 3.501.076 5.197.106 2.676.056 5.281.106 7.805.152 2.717.051 5.307.092 7.795.138 6.602.111 12.354.203 16.727.254.701 4.936.944 9.912 1.041 14.908.062 2.864.081 5.738.081 8.612.006 10.431 12.543 12.711 18.139 6.927 26.487-16.361 50.312-36.186 72.417-58.071 3.839-3.809 3.718-8.44 1.61-12.033-.533-1.389-1.442-2.745-2.91-3.979-23.801-19.903-47.012-40.484-70.198-61.098-8.343-7.397-19.936 1.552-17.758 9.909zm18.86 99.076c-.427-5.357-1.107-10.699-2.341-15.99-.031-.127-.082-.224-.122-.351-.519-3.347-2.474-6.434-5.855-7.815-1.178-.487-2.523-.771-4.052-.776a2386.36 2386.36 0 0 1-25.689-.26c-2.523-.035-5.124-.081-7.795-.121-2.559-.041-5.159-.087-7.805-.133-1.714-.03-3.456-.07-5.197-.102-2.585-.051-5.18-.102-7.795-.162-2.605-.051-5.205-.117-7.805-.178-9.354-.229-18.57-.503-26.941-.808-10.503-.391-19.687-.838-26.029-1.351.546-10.806.894-21.622 1.424-32.428 9.531.822 26.436 1.519 44.5 2.138 2.293.079 4.596.155 6.917.229 2.605.084 5.205.173 7.805.249 2.621.083 5.215.167 7.795.246 1.747.051 3.483.109 5.2.16 2.656.083 5.261.162 7.805.244 2.687.083 5.276.167 7.795.251 8.871.284 16.564.561 21.916.83.641.033 1.219-.025 1.798-.086.265.025.538.086.803.086.554 0 1.066-.081 1.579-.155.061-.015.122-.025.183-.041.005 0 .011-.008.016-.008 1.229-.201 2.336-.597 3.311-1.173 3.036-1.806 4.859-5.195 5.316-9.019.152-1.311.36-2.61.549-3.915.314-2.179.64-4.357 1.011-6.53.233-1.399.462-2.803.705-4.202.249.218.508.437.752.66 15.854 14.035 31.793 27.972 47.961 41.652-14.957 14.174-30.744 27.235-47.715 38.859zM189.488 172.332c5.593 5.783 18.131 3.501 18.136-6.927 0-4.034.011-8.059.165-12.067.147-3.832.422-7.655.962-11.456a3263.9 3263.9 0 0 0 20.073-.312c2.511-.046 5.116-.091 7.815-.145 2.532-.048 5.121-.104 7.78-.155 1.719-.038 3.435-.073 5.195-.111 2.574-.056 5.18-.12 7.814-.181 2.58-.063 5.18-.129 7.78-.198 7.906-.208 15.787-.447 23.257-.713 13.857-.493 26.197-1.087 34.053-1.788 6.281 2.267 14.396-.785 13.802-9.272-1.259-17.748-1.427-35.545-2.6-53.298a11.623 11.623 0 0 0-.452-2.501c-.091-5.111-3.377-9.833-9.947-9.199-6.937.666-17.438 1.254-29.361 1.785-9.663.427-20.241.815-30.763 1.181-2.609.087-5.199.176-7.779.264-2.635.089-5.24.178-7.807.259-1.742.058-3.489.117-5.185.172-2.661.089-5.261.178-7.78.259-2.714.094-5.319.183-7.81.271-6.685.239-12.51.467-16.91.69-.835-4.964-1.711-9.925-2.521-14.896-.376-2.288-.77-4.576-1.077-6.88 0-.016-.005-.031-.01-.046 2.173-8.356-9.417-17.311-17.743-9.907-23.186 20.614-46.397 41.195-70.198 61.098-1.47 1.234-2.382 2.584-2.912 3.979-2.1 3.587-2.224 8.226 1.612 12.032 22.096 21.876 45.922 41.708 72.411 58.062zM188.452 64.96c.854 4.867 1.686 9.74 2.268 14.647.67 5.626 4.222 10.4 10.399 10.4.264 0 .536-.062.8-.087.579.062 1.161.12 1.8.087.396-.021.899-.041 1.32-.062 5.672-.271 13.479-.546 22.5-.833 2.516-.083 5.131-.16 7.805-.244 2.547-.079 5.142-.163 7.785-.244 1.709-.053 3.448-.112 5.19-.163 2.59-.084 5.189-.16 7.805-.244 2.6-.084 5.194-.167 7.784-.254l6.892-.236c17.356-.602 33.448-1.277 42.649-2.069.533 10.806.879 21.622 1.427 32.428-6.753.546-16.747 1.018-28.102 1.424a2299.58 2299.58 0 0 1-29.792.851c-2.615.058-5.226.122-7.812.172-1.747.036-3.468.069-5.192.104-2.638.053-5.228.099-7.785.14-2.668.048-5.268.089-7.81.127-10.313.155-19.418.254-26.151.289-.8.005-1.684.01-2.417.016-5.908.022-9.209 4.072-9.912 8.587-.031.124-.086.218-.12.348-1.231 5.299-1.912 10.633-2.338 15.993-16.973-11.626-32.761-24.687-47.715-38.867 16.432-13.891 32.623-28.046 48.722-42.31z"/></svg>