<svg xmlns="http://www.w3.org/2000/svg" viewBox="0 0 498.881 498.881"><path d="M398.621 4.708c-.717-1.29-1.625-2.193-2.626-2.828-2.493-2.125-6.067-2.48-9.13-.904-5.169 2.661-9.841 6.167-15.006 8.828-2.482 1.275-3.798 3.934-3.879 6.614-1.412 2.138-1.711 4.921.142 7.79.519.802 1.036 1.597 1.564 2.396-16.833 16.76-33.916 33.261-50.785 49.982-5.91-5.667-11.831-11.321-17.747-16.983-3.407-3.265-7.617-2.62-10.456-.312a8.804 8.804 0 0 0-1.711 1.239c-19.708 18.167-39.494 36.262-58.635 55.04-10.141 9.948-22.089 18.18-31.349 29.026-3.89 4.555-10.313 10.922-11.555 17.074-.239 1.181.686 19.116 3.448 16.369-8.658 8.607-17.669 16.849-26.332 25.458-.355.355-.63.724-.901 1.095-2.605 2.179-3.773 5.751-1.222 9.415 10.443 15.028 21.955 29.249 33.908 43.094 3.567 4.128 8.371 2.859 11.124-.386.089-.056.183-.081.274-.138 2.928-1.828 5.736-3.839 8.582-5.778-2.648 15.239-6.081 30.306-9.679 45.458-1.846 4.026-.774 9.663 4.68 11.44 7.883 2.569 15.95 4.494 23.836 7.059 1.655.543 3.136.518 4.43.143 3.179.091 6.246-1.595 7.109-5.688 4.52-21.389 9.833-42.563 15.891-63.563.473-1.633.406-3.088.031-4.373 13.451-11.798 27.004-23.488 40.288-35.442 29.468 31.819 26.289 70.828 7.312 106.714-9.161 17.341-18.986 37.902-32.408 52.359-16.239 17.483-38.696 13.832-60.255 14.04-31.397.3-62.751 1.803-94.158 1.417-7.358-.086-9.407 8.059-6.188 12.721-.079 10.892-.774 21.769-.858 32.666-16.65 17.758-32.136 36.49-47.05 55.726-5.225 3.814-3.664 14.355 4.659 14.533 86.823 1.869 184.3 5.825 271.017-.883.33-.025.63-.112.944-.168 5.586.279 11.426-5.525 7.688-11.786-2.555-4.275-5.353-8.343-8.257-12.319 13.243-11.725 14.848-28.437 1.441-41.197-1.731-1.65-3.676-2.265-5.534-2.174-10.726-2.6-21.49-.781-29.534 6.779a607.655 607.655 0 0 0-10.009-9.014v-1.848c.519-1.331.681-2.869.29-4.596-.132-.579-.168-1.163-.29-1.742v-4.271c74.017-50.982 122.628-184.63 46.226-251.093 7.022-7.666 13.873-15.514 20.307-23.771 2.955-3.791 1.97-8.315-.533-11.174a8.619 8.619 0 0 0-1.234-1.825c-3.117-3.489-6.388-6.833-9.587-10.237 14.289-15.082 28.325-30.39 40.751-47.04.167.231.324.47.497.698.401.541.838.998 1.3 1.399 1.915 2.635 5.444 4.42 8.562 3.136 5.916-2.44 16.534-7.666 21.155-12.157.873-.848 1.432-1.879 1.812-2.971 1.783-2.204 2.347-5.261.32-8.424-9.769-15.231-23.896-28.825-32.68-44.623zm-195.47 235.84c-8.132-9.618-16.052-19.406-23.42-29.623 7.076-6.896 14.279-13.649 21.312-20.591 8.846 10.861 17.608 21.797 26.5 32.623-7.84 6.272-15.952 12.147-24.392 17.591zm29.95 56.964c-3.255-.97-6.52-1.904-9.785-2.838 3.963-16.824 7.696-33.673 10.146-50.793.264-1.876-.058-3.552-.759-4.971 1.647-1.28 3.349-2.491 4.977-3.791 2.838 3.359 5.687 6.718 8.584 10.031-4.921 17.324-9.288 34.782-13.163 52.362zm-100.084 98.782c.076 1.6 137.07-3.519 151.487-4.24.319 7.739 1.325 16.371 1.325 24.283v2.382c-47.568 3.265-105.812 1.726-153.457 1.427.175-7.952.503-15.899.645-23.852zm204.475 46.327c4.896 5.86 3.361 10.953-1.879 16.047-4.027-4.672-8.19-9.228-12.562-13.599 4.143-3.332 8.89-3.824 14.441-2.448zm-5.083 37.415c-77.149 5.078-165.006 2.315-242.245.467 12.226-15.295 24.872-30.225 38.309-44.493 49.741.238 110.065 2.021 159.723-1.549 16.019 13.999 31.711 28.42 44.213 45.575zm-32.103-85.833c.146-3.25.37-6.5.675-9.729.533-5.764-4.413-8.166-8.876-7.282a7.921 7.921 0 0 0-2.823-.518h-2.164c43.519-56.355 80.826-123.857 27.503-181.561a667.225 667.225 0 0 0 22.404-21.881c65.257 57.698 25.78 172.095-36.719 220.971zm-47.309-165.578c-17.222-20.076-33.487-40.954-50.412-61.278 29.041-32.344 60.956-61.769 92.886-91.2 19.291 18.433 38.618 36.835 56.579 56.579-29.188 35.798-64.393 65.527-99.053 95.899zm92.924-125.452a1077.545 1077.545 0 0 0-15.595-15.536c15.493-15.361 31.148-30.549 46.642-45.905a3486.98 3486.98 0 0 1 9.658 14.233c-12.208 16.863-26.385 32.124-40.705 47.208zm62.84-48.362c-.198.129-.417.234-.614.358-8.12-11.253-15.763-22.833-23.329-34.469 1.133-.696 2.275-1.394 3.397-2.1 6.77 12.108 18.921 21.995 26.259 33.766-.133.089-5.54 2.33-5.713 2.445z"/><path d="M291.561 102.701l29.569 29.562a54.478 54.478 0 0 1-11.369 12.703c-3.296 2.693-2.783 8.251 0 11.029 3.229 3.229 7.743 2.688 11.029 0 7.038-5.756 12.68-13.005 16.818-21.082 2.057-4.019.462-7.81-2.331-9.968-.366-.711-.823-1.419-1.488-2.079L302.59 91.667c-7.119-7.12-18.148 3.915-11.029 11.034z"/></svg>